<?xml version="1.0" encoding="UTF-8"?>
<svg width="18px" height="18px" viewBox="0 0 18 18" version="1.1" xmlns="http://www.w3.org/2000/svg" xmlns:xlink="http://www.w3.org/1999/xlink">
    <!-- Generator: Sketch 54.1 (76490) - https://sketchapp.com -->
    <title>Combined Shape</title>
    <desc>Created with Sketch.</desc>
    <defs>
        <path d="M9,17.75 C4.16750844,17.75 0.25,13.8324916 0.25,9 C0.25,4.16750844 4.16750844,0.25 9,0.25 C13.8324916,0.25 17.75,4.16750844 17.75,9 C17.75,13.8324916 13.8324916,17.75 9,17.75 Z M8.3,4 L8.3,10.875 L9.70625,10.875 L9.70625,4 L8.3,4 Z M9,14.625 C9.51776695,14.625 9.9375,14.205267 9.9375,13.6875 C9.9375,13.169733 9.51776695,12.75 9,12.75 C8.48223305,12.75 8.0625,13.169733 8.0625,13.6875 C8.0625,14.205267 8.48223305,14.625 9,14.625 Z" id="path-1"></path>
    </defs>
    <g id="Edit-here" stroke="none" stroke-width="1" fill="none" fill-rule="evenodd">
        <g id="Artboard" transform="translate(-3511.000000, -1928.000000)">
            <g id="icon/status/warning/filled/20" transform="translate(3511.000000, 1928.000000)">
                <mask id="mask-2" fill="white">
                    <use xlink:href="#path-1"></use>
                </mask>
                <use id="Combined-Shape" fill="#FDD13A" xlink:href="#path-1"></use>
            </g>
        </g>
    </g>
</svg>